<svg xmlns="http://www.w3.org/2000/svg" width="24" height="24" viewBox="0 0 1781 1781"><path d="M942.000 69.926 C 971.018 71.811,983.492 72.869,989.500 73.953 C 992.800 74.548,999.100 75.451,1003.500 75.959 C 1007.900 76.467,1014.650 77.548,1018.500 78.360 C 1022.350 79.173,1030.675 80.795,1037.000 81.964 C 1043.325 83.134,1050.127 84.521,1052.116 85.045 C 1054.105 85.570,1057.075 86.000,1058.717 86.000 C 1060.358 86.000,1063.006 86.394,1064.601 86.875 C 1066.195 87.357,1069.750 88.232,1072.500 88.820 C 1075.250 89.407,1082.000 90.854,1087.500 92.035 C 1101.024 94.938,1116.326 99.679,1151.500 111.863 C 1154.800 113.006,1162.675 115.590,1169.000 117.606 C 1179.815 121.053,1195.217 127.228,1204.702 131.921 C 1207.013 133.064,1209.606 134.000,1210.464 134.000 C 1211.322 134.000,1215.506 135.637,1219.762 137.637 C 1232.215 143.491,1260.327 157.032,1262.462 158.204 C 1263.541 158.797,1266.466 160.416,1268.962 161.802 C 1271.458 163.188,1276.228 165.768,1279.563 167.534 C 1282.897 169.301,1289.197 172.944,1293.563 175.631 C 1297.928 178.318,1302.735 181.065,1304.245 181.734 C 1305.754 182.404,1313.404 187.147,1321.245 192.273 C 1329.085 197.400,1339.455 204.048,1344.289 207.047 C 1353.420 212.712,1355.367 214.104,1381.000 233.296 C 1400.059 247.567,1411.157 256.574,1431.080 273.946 C 1444.352 285.519,1453.049 293.768,1482.039 322.283 C 1484.714 324.914,1489.053 329.639,1491.681 332.783 C 1494.310 335.927,1498.795 340.975,1501.647 344.000 C 1504.499 347.025,1508.460 351.525,1510.449 354.000 C 1512.437 356.475,1515.089 359.625,1516.343 361.000 C 1520.013 365.026,1533.115 380.989,1538.093 387.500 C 1540.617 390.800,1547.662 400.104,1553.750 408.176 C 1563.542 421.159,1567.857 427.326,1583.014 450.000 C 1589.886 460.280,1607.000 489.459,1607.000 490.896 C 1607.000 491.248,1608.190 493.286,1609.643 495.426 C 1612.593 499.766,1634.000 541.903,1634.000 543.368 C 1634.000 543.881,1635.087 546.596,1636.415 549.400 C 1642.352 561.938,1646.074 570.158,1647.845 574.650 C 1648.898 577.318,1652.091 585.096,1654.942 591.936 C 1657.793 598.776,1662.603 611.601,1665.631 620.436 C 1671.599 637.855,1672.307 640.050,1678.227 659.500 C 1680.404 666.650,1683.085 674.975,1684.185 678.000 C 1686.567 684.550,1690.204 700.263,1692.980 716.000 C 1695.003 727.467,1702.085 764.680,1703.022 768.764 C 1703.560 771.110,1704.000 774.233,1704.000 775.704 C 1704.000 777.176,1704.438 780.882,1704.974 783.940 C 1705.510 786.998,1706.441 796.250,1707.043 804.500 C 1707.645 812.750,1708.831 827.375,1709.680 837.000 C 1711.767 860.690,1712.525 912.970,1711.013 929.000 C 1710.364 935.875,1709.167 950.050,1708.352 960.500 C 1706.488 984.418,1705.282 996.861,1704.087 1004.500 C 1703.571 1007.800,1702.720 1013.650,1702.195 1017.500 C 1700.865 1027.255,1694.403 1060.385,1691.370 1073.000 C 1689.981 1078.775,1688.279 1086.200,1687.586 1089.500 C 1682.272 1114.828,1659.601 1181.976,1649.452 1202.446 C 1648.104 1205.167,1647.000 1207.992,1647.000 1208.725 C 1647.000 1209.458,1645.709 1212.632,1644.130 1215.779 C 1642.552 1218.925,1640.918 1222.625,1640.499 1224.000 C 1638.914 1229.201,1629.645 1248.387,1620.207 1266.000 C 1618.292 1269.575,1615.191 1275.425,1613.316 1279.000 C 1609.194 1286.859,1607.437 1289.971,1603.435 1296.500 C 1601.749 1299.250,1598.652 1304.425,1596.553 1308.000 C 1572.895 1348.288,1532.181 1402.805,1496.855 1441.500 C 1495.348 1443.150,1491.087 1447.875,1487.386 1452.000 C 1459.889 1482.643,1399.954 1534.697,1363.610 1559.500 C 1358.775 1562.800,1350.917 1568.200,1346.148 1571.500 C 1316.213 1592.214,1291.366 1606.688,1254.500 1624.890 C 1228.074 1637.937,1221.533 1641.000,1220.098 1641.000 C 1219.389 1641.000,1217.596 1641.863,1216.114 1642.919 C 1214.632 1643.974,1210.709 1645.751,1207.395 1646.867 C 1204.082 1647.983,1199.084 1650.045,1196.290 1651.448 C 1193.496 1652.852,1190.760 1654.000,1190.209 1654.000 C 1189.659 1654.000,1186.125 1655.310,1182.355 1656.911 C 1178.585 1658.512,1172.575 1660.781,1169.000 1661.954 C 1165.425 1663.126,1161.825 1664.349,1161.000 1664.671 C 1153.982 1667.412,1139.556 1672.407,1135.500 1673.501 C 1132.750 1674.242,1127.350 1675.817,1123.500 1676.999 C 1119.650 1678.182,1114.025 1679.767,1111.000 1680.520 C 1107.975 1681.274,1102.575 1682.840,1099.000 1683.999 C 1095.425 1685.158,1089.800 1686.719,1086.500 1687.467 C 1078.400 1689.303,1068.159 1691.854,1064.500 1692.946 C 1062.850 1693.439,1058.575 1694.149,1055.000 1694.525 C 1051.425 1694.901,1044.000 1696.243,1038.500 1697.507 C 1033.000 1698.772,1025.125 1700.331,1021.000 1700.972 C 1016.875 1701.613,1011.925 1702.538,1010.000 1703.026 C 1008.075 1703.515,1004.025 1704.194,1001.000 1704.535 C 997.975 1704.876,992.125 1705.546,988.000 1706.025 C 972.392 1707.834,958.105 1709.014,946.738 1709.430 C 940.269 1709.668,932.619 1710.376,929.738 1711.005 C 926.071 1711.805,913.106 1711.991,886.500 1711.624 C 842.789 1711.021,815.214 1709.354,793.000 1705.971 C 789.425 1705.426,782.900 1704.578,778.500 1704.087 C 768.014 1702.915,746.508 1699.562,736.750 1697.577 C 714.706 1693.092,708.858 1691.799,702.500 1690.003 C 700.300 1689.382,695.800 1688.253,692.500 1687.495 C 685.066 1685.788,665.024 1680.009,655.000 1676.684 C 650.875 1675.315,645.925 1673.871,644.000 1673.474 C 642.075 1673.077,638.700 1671.921,636.500 1670.906 C 634.300 1669.890,629.800 1668.183,626.500 1667.112 C 615.578 1663.565,595.593 1656.355,589.500 1653.763 C 586.200 1652.359,580.125 1649.808,576.000 1648.094 C 571.875 1646.380,566.864 1644.083,564.864 1642.989 C 562.864 1641.895,560.614 1640.998,559.864 1640.996 C 558.675 1640.992,554.433 1639.038,547.500 1635.301 C 546.400 1634.708,541.225 1632.275,536.000 1629.893 C 530.775 1627.511,522.264 1623.298,517.087 1620.531 C 511.909 1617.764,502.909 1613.013,497.087 1609.973 C 479.609 1600.848,443.983 1578.982,426.000 1566.343 C 411.313 1556.021,403.671 1550.438,398.124 1545.980 C 395.031 1543.494,391.375 1540.731,390.000 1539.840 C 388.625 1538.950,382.696 1534.234,376.825 1529.361 C 370.953 1524.487,363.079 1518.025,359.327 1515.000 C 341.067 1500.281,293.247 1453.167,275.781 1432.688 C 264.645 1419.631,253.542 1406.220,248.284 1399.474 C 244.866 1395.088,239.241 1387.913,235.784 1383.530 C 223.152 1367.509,189.042 1316.881,182.539 1304.500 C 181.383 1302.300,179.195 1298.566,177.676 1296.201 C 176.157 1293.837,174.466 1290.912,173.920 1289.701 C 173.373 1288.491,170.697 1283.450,167.973 1278.500 C 161.520 1266.775,141.415 1226.225,140.455 1223.000 C 140.046 1221.625,138.426 1217.969,136.855 1214.876 C 135.285 1211.783,133.998 1208.858,133.996 1208.376 C 133.994 1207.894,132.896 1205.341,131.558 1202.703 C 130.219 1200.065,128.590 1196.240,127.938 1194.203 C 127.285 1192.166,125.697 1188.157,124.409 1185.292 C 121.639 1179.136,114.777 1160.399,112.948 1154.000 C 112.241 1151.525,109.434 1142.750,106.711 1134.500 C 101.717 1119.371,100.232 1114.394,92.837 1088.000 C 88.281 1071.736,87.468 1068.289,86.003 1059.000 C 84.852 1051.699,83.736 1045.327,82.064 1036.500 C 81.439 1033.200,79.803 1023.525,78.428 1015.000 C 77.053 1006.475,75.218 995.225,74.350 990.000 C 73.482 984.775,72.432 976.225,72.017 971.000 C 71.602 965.775,70.504 955.256,69.578 947.626 C 68.143 935.814,67.964 926.745,68.372 886.626 C 68.635 860.706,69.324 835.225,69.903 830.000 C 70.482 824.775,71.227 815.325,71.559 809.000 C 71.891 802.675,72.560 796.150,73.046 794.500 C 73.532 792.850,74.383 787.000,74.938 781.500 C 75.492 776.000,77.584 763.625,79.586 754.000 C 81.588 744.375,83.590 733.575,84.035 730.000 C 85.318 719.691,86.873 711.640,88.900 704.822 C 89.933 701.345,91.007 697.600,91.286 696.500 C 91.565 695.400,93.003 690.225,94.482 685.000 C 95.960 679.775,98.443 670.775,99.999 665.000 C 103.969 650.262,119.637 604.938,125.925 590.000 C 128.818 583.125,132.301 574.580,133.663 571.012 C 135.025 567.443,136.971 562.943,137.987 561.012 C 139.002 559.080,141.558 553.675,143.667 549.000 C 150.037 534.875,169.108 498.041,175.021 488.443 C 177.373 484.624,180.811 478.575,182.662 475.000 C 184.512 471.425,186.807 467.310,187.763 465.856 C 188.718 464.402,191.692 459.677,194.371 455.356 C 197.050 451.035,199.525 447.275,199.871 447.000 C 200.217 446.725,201.352 444.925,202.394 443.000 C 203.436 441.075,205.056 438.600,205.994 437.500 C 206.932 436.400,209.440 432.800,211.568 429.500 C 215.569 423.295,227.098 407.422,239.420 391.152 C 243.314 386.011,247.515 380.386,248.757 378.652 C 249.998 376.918,251.591 375.050,252.298 374.500 C 253.004 373.950,256.260 370.125,259.532 366.000 C 262.805 361.875,268.451 355.350,272.079 351.500 C 275.707 347.650,279.596 343.375,280.722 342.000 C 299.486 319.085,337.100 282.564,363.500 261.625 C 371.100 255.597,386.150 243.255,395.251 235.588 C 402.091 229.824,412.026 222.859,436.500 206.668 C 465.372 187.566,470.809 184.073,476.000 181.286 C 479.025 179.662,483.300 177.287,485.500 176.008 C 492.587 171.888,511.292 162.042,513.154 161.451 C 514.148 161.136,517.531 159.330,520.672 157.439 C 523.813 155.547,526.789 154.000,527.287 154.000 C 527.784 154.000,529.412 153.131,530.905 152.068 C 532.397 151.005,538.767 147.811,545.059 144.971 C 551.352 142.130,559.207 138.500,562.516 136.903 C 565.826 135.306,568.865 134.000,569.271 134.000 C 569.678 134.000,572.222 132.933,574.927 131.628 C 577.631 130.323,581.053 128.952,582.532 128.581 C 584.011 128.210,587.084 127.086,589.360 126.082 C 599.431 121.643,616.842 114.972,620.500 114.149 C 622.700 113.655,626.750 112.353,629.500 111.257 C 642.768 105.967,661.423 100.093,671.500 98.032 C 675.088 97.298,682.187 95.373,699.000 90.575 C 702.025 89.712,707.200 88.515,710.500 87.916 C 713.800 87.317,718.750 86.389,721.500 85.854 C 724.250 85.319,728.975 84.482,732.000 83.993 C 738.648 82.920,744.461 81.750,757.000 78.962 C 762.225 77.800,770.325 76.457,775.000 75.976 C 779.675 75.496,785.975 74.573,789.000 73.925 C 792.025 73.277,801.250 72.397,809.500 71.968 C 829.611 70.924,849.076 69.257,849.818 68.516 C 850.703 67.630,923.905 68.750,942.000 69.926 M853.500 182.162 C 848.697 183.282,838.558 184.402,814.500 186.473 C 795.307 188.126,785.548 189.316,777.500 190.986 C 774.750 191.557,769.575 192.410,766.000 192.882 C 762.425 193.353,755.900 194.650,751.500 195.764 C 740.646 198.510,734.352 199.859,729.000 200.587 C 726.525 200.923,722.025 202.009,719.000 203.001 C 715.975 203.992,710.125 205.594,706.000 206.560 C 701.875 207.527,695.471 209.371,691.769 210.659 C 688.067 211.947,684.348 213.000,683.505 213.000 C 682.662 213.000,681.191 213.426,680.236 213.946 C 679.281 214.466,674.675 216.073,670.000 217.519 C 665.325 218.964,658.350 221.414,654.500 222.963 C 650.650 224.513,643.000 227.461,637.500 229.515 C 632.000 231.570,623.225 235.165,618.000 237.505 C 588.222 250.840,581.760 253.817,574.500 257.542 C 563.873 262.994,543.882 274.067,542.000 275.543 C 541.175 276.190,538.025 278.068,535.000 279.715 C 531.975 281.363,527.385 284.013,524.801 285.605 C 522.216 287.197,516.990 290.396,513.187 292.714 C 504.129 298.234,503.248 300.240,504.985 311.403 C 505.937 317.522,506.060 324.704,505.459 339.083 C 505.013 349.762,504.767 368.850,504.912 381.500 C 505.529 435.061,505.448 457.870,504.621 463.750 C 503.882 469.003,503.978 470.000,505.225 470.000 C 506.041 470.000,510.794 466.512,515.787 462.250 C 539.028 442.410,559.397 426.444,567.774 421.500 C 568.705 420.950,572.850 417.969,576.984 414.875 C 581.118 411.782,586.525 408.134,589.000 406.770 C 591.475 405.406,597.000 402.158,601.279 399.553 C 613.453 392.139,619.916 388.703,643.500 377.108 C 668.862 364.640,670.276 363.998,679.000 360.983 C 682.575 359.747,687.075 357.971,689.000 357.035 C 692.259 355.450,706.073 350.799,727.500 344.071 C 744.051 338.874,754.439 336.001,762.000 334.530 C 766.125 333.728,773.100 332.180,777.500 331.091 C 781.900 330.001,789.550 328.616,794.500 328.011 C 799.450 327.407,806.650 326.275,810.500 325.496 C 821.007 323.370,832.708 321.986,840.110 321.993 C 850.376 322.004,855.496 321.036,856.876 318.826 C 858.295 316.554,861.726 299.037,863.011 287.500 C 863.501 283.100,864.373 276.350,864.949 272.500 C 865.524 268.650,866.895 257.850,867.994 248.500 C 869.094 239.150,870.424 228.350,870.951 224.500 C 872.385 214.016,874.295 188.849,873.871 186.025 C 873.662 184.631,872.408 183.000,871.000 182.290 C 868.145 180.851,859.401 180.787,853.500 182.162 M910.770 181.686 C 908.671 182.235,906.786 188.601,907.532 192.615 C 907.828 194.202,908.459 202.250,908.935 210.500 C 909.411 218.750,910.524 231.125,911.408 238.000 C 912.292 244.875,913.939 257.925,915.068 267.000 C 916.197 276.075,917.515 285.975,917.997 289.000 C 918.479 292.025,919.391 297.875,920.025 302.000 C 921.645 312.546,923.197 317.869,925.176 319.659 C 926.525 320.880,930.388 321.292,943.690 321.633 C 960.423 322.062,967.228 322.909,976.223 325.685 C 978.821 326.487,984.671 327.786,989.223 328.571 C 993.776 329.357,999.300 330.425,1001.500 330.944 C 1003.700 331.464,1011.792 333.263,1019.481 334.941 C 1027.171 336.620,1035.496 338.632,1037.981 339.413 C 1040.467 340.195,1044.270 341.132,1046.434 341.497 C 1051.598 342.367,1068.332 348.130,1102.500 360.803 C 1106.900 362.435,1119.275 367.917,1130.000 372.986 C 1147.784 381.390,1154.463 384.931,1165.229 391.667 C 1167.279 392.950,1169.234 394.000,1169.573 394.000 C 1170.956 394.000,1198.437 410.910,1211.500 419.799 C 1228.325 431.249,1231.458 433.650,1258.801 456.058 C 1264.467 460.701,1270.421 465.564,1272.033 466.864 C 1273.752 468.251,1275.628 468.973,1276.572 468.611 C 1278.027 468.052,1278.160 462.634,1277.964 411.747 C 1277.845 380.811,1278.079 345.825,1278.483 334.000 C 1279.330 309.247,1278.424 303.689,1272.467 297.095 C 1268.341 292.528,1238.737 274.782,1218.000 264.444 C 1209.475 260.194,1201.251 255.842,1199.725 254.772 C 1192.385 249.630,1145.776 229.324,1135.735 226.894 C 1133.664 226.393,1129.164 224.701,1125.735 223.133 C 1120.131 220.571,1110.929 217.473,1096.500 213.289 C 1093.750 212.492,1089.700 211.215,1087.500 210.451 C 1085.300 209.688,1079.450 208.144,1074.500 207.021 C 1069.550 205.897,1064.600 204.578,1063.500 204.089 C 1060.445 202.731,1051.384 200.387,1042.500 198.656 C 1038.100 197.798,1030.675 196.210,1026.000 195.127 C 1021.325 194.044,1011.650 192.409,1004.500 191.494 C 997.350 190.578,989.025 189.443,986.000 188.970 C 971.754 186.745,953.196 184.771,940.000 184.075 C 932.025 183.655,924.825 183.052,924.000 182.736 C 921.768 181.881,912.757 181.166,910.770 181.686 M476.000 318.129 C 474.075 319.802,470.025 322.942,467.000 325.106 C 463.975 327.270,457.828 332.069,453.340 335.770 C 448.853 339.472,440.753 346.086,435.340 350.468 C 400.903 378.352,366.575 414.103,330.266 459.898 C 327.387 463.529,323.684 468.146,322.036 470.159 C 316.875 476.462,314.782 480.596,316.232 481.625 C 316.973 482.151,351.611 482.312,399.500 482.013 L 481.500 481.500 481.500 398.583 C 481.500 344.166,481.156 315.567,480.500 315.377 C 479.950 315.217,477.925 316.456,476.000 318.129 M1299.661 319.250 C 1299.355 320.488,1299.072 353.225,1299.032 392.000 C 1298.985 436.562,1298.571 464.741,1297.904 468.592 C 1296.357 477.533,1296.933 481.224,1300.000 482.004 C 1301.835 482.471,1446.652 482.525,1462.750 482.064 C 1464.288 482.020,1465.000 481.386,1465.000 480.060 C 1465.000 478.240,1458.543 469.023,1451.582 460.907 C 1449.887 458.931,1447.825 456.449,1447.000 455.391 C 1446.175 454.334,1443.680 451.226,1441.455 448.485 C 1439.230 445.743,1436.673 442.326,1435.774 440.891 C 1426.449 426.013,1356.030 356.658,1331.814 338.500 C 1330.347 337.400,1324.378 332.794,1318.550 328.264 C 1308.401 320.375,1303.190 317.000,1301.158 317.000 C 1300.640 317.000,1299.967 318.012,1299.661 319.250 M928.671 343.251 C 926.997 344.476,927.116 345.444,930.855 361.023 C 933.031 370.085,935.579 381.100,936.518 385.500 C 940.009 401.860,946.215 426.197,947.992 430.500 C 949.402 433.913,950.116 436.246,952.119 444.000 C 954.756 454.200,960.851 473.779,962.614 477.708 C 963.406 479.472,964.567 481.233,965.196 481.621 C 966.999 482.736,1250.339 482.024,1251.481 480.902 C 1252.567 479.835,1249.254 476.532,1237.776 467.236 C 1227.705 459.080,1220.054 453.224,1212.266 447.709 C 1208.545 445.075,1203.250 441.129,1200.500 438.941 C 1197.750 436.752,1193.063 433.575,1190.085 431.879 C 1187.107 430.184,1180.923 426.354,1176.343 423.369 C 1155.492 409.779,1107.988 385.944,1090.114 380.105 C 1086.602 378.958,1083.195 377.577,1082.544 377.036 C 1080.856 375.636,1065.326 370.366,1053.000 367.011 C 1047.225 365.439,1040.025 363.259,1037.000 362.167 C 1033.975 361.074,1029.025 359.663,1026.000 359.031 C 1022.975 358.398,1017.575 357.046,1014.000 356.024 C 1005.338 353.551,991.129 351.000,986.008 351.000 C 983.735 351.000,979.766 350.331,977.188 349.512 C 974.610 348.694,966.875 347.353,960.000 346.531 C 941.998 344.381,933.667 343.193,931.949 342.534 C 931.121 342.216,929.646 342.539,928.671 343.251 M819.623 346.504 C 811.440 347.747,803.115 349.231,801.123 349.803 C 792.697 352.219,789.174 352.958,783.500 353.500 C 773.064 354.497,748.437 359.956,742.000 362.700 C 740.075 363.520,734.967 365.053,730.648 366.105 C 705.852 372.148,651.183 395.636,624.325 411.787 C 620.929 413.829,615.529 417.032,612.325 418.905 C 609.121 420.778,604.475 423.734,602.000 425.474 C 599.525 427.213,593.000 431.495,587.500 434.987 C 582.000 438.480,575.925 442.616,574.000 444.177 C 572.075 445.738,565.100 451.067,558.500 456.018 C 537.590 471.705,528.622 479.366,529.186 481.058 C 529.676 482.529,813.327 482.430,816.077 480.959 C 817.934 479.965,818.976 477.414,824.024 461.500 C 826.933 452.329,828.477 446.797,835.474 420.471 C 836.794 415.504,838.518 409.429,839.305 406.971 C 841.566 399.905,846.431 379.551,848.576 368.187 C 851.407 353.178,852.051 346.767,850.870 345.343 C 849.240 343.379,837.274 343.824,819.623 346.504 M889.566 346.250 C 889.027 348.066,887.365 355.162,884.939 366.000 C 883.770 371.225,882.437 376.850,881.976 378.500 C 881.516 380.150,880.831 383.525,880.453 386.000 C 879.663 391.185,873.081 417.179,869.946 427.500 C 868.776 431.350,867.404 436.525,866.896 439.000 C 866.389 441.475,864.896 446.425,863.580 450.000 C 862.263 453.575,859.093 463.250,856.535 471.500 C 853.976 479.750,851.426 487.606,850.868 488.958 C 850.310 490.310,848.929 494.135,847.800 497.458 C 846.671 500.781,844.738 505.750,843.505 508.500 C 842.272 511.250,840.926 515.075,840.514 517.000 C 840.102 518.925,838.879 522.300,837.795 524.500 C 836.711 526.700,835.000 530.750,833.992 533.500 C 831.360 540.679,823.772 557.067,821.734 559.973 C 820.780 561.332,820.000 562.789,820.000 563.208 C 820.000 564.175,810.531 583.385,803.590 596.500 C 794.989 612.752,785.112 628.179,765.297 656.310 C 758.353 666.169,752.840 673.269,746.251 680.837 C 743.061 684.502,738.670 689.750,736.493 692.500 C 729.143 701.786,718.094 712.983,697.000 732.523 C 694.525 734.815,689.575 739.099,686.000 742.043 C 682.425 744.986,679.275 747.649,679.000 747.961 C 671.697 756.238,617.111 792.316,595.000 803.479 C 589.775 806.116,583.933 809.338,582.018 810.637 C 580.103 811.937,578.162 813.000,577.705 813.000 C 576.894 813.000,573.654 814.456,555.731 822.879 C 550.909 825.146,546.757 827.000,546.506 827.000 C 546.255 827.000,543.103 828.350,539.500 830.000 C 535.897 831.650,532.471 833.000,531.887 833.000 C 531.302 833.000,527.826 834.388,524.162 836.084 C 517.339 839.242,505.242 843.966,499.000 845.910 C 480.663 851.621,469.165 855.310,467.500 856.018 C 466.400 856.485,463.925 857.323,462.000 857.880 C 460.075 858.437,454.900 859.977,450.500 861.302 C 446.100 862.628,439.800 864.472,436.500 865.400 C 433.200 866.328,427.575 867.933,424.000 868.965 C 408.635 873.403,391.898 877.341,379.500 879.436 C 374.000 880.365,366.575 881.958,363.000 882.977 C 359.425 883.995,354.025 885.376,351.000 886.045 C 345.043 887.363,343.000 888.514,343.000 890.551 C 343.000 893.251,346.023 894.715,352.919 895.356 C 362.786 896.273,394.787 902.675,398.896 904.554 C 400.764 905.408,404.589 906.537,407.396 907.063 C 418.745 909.188,494.634 932.876,515.500 940.806 C 525.313 944.535,537.151 949.419,542.500 951.945 C 556.613 958.610,561.844 961.000,562.316 961.000 C 562.612 961.000,566.264 962.575,570.431 964.500 C 574.599 966.425,578.261 968.000,578.569 968.000 C 579.886 968.000,599.340 979.010,613.907 988.000 C 617.917 990.475,622.616 993.369,624.349 994.431 C 646.346 1007.912,671.822 1026.282,687.268 1039.799 C 707.191 1057.234,741.452 1093.494,755.487 1112.000 C 766.548 1126.583,787.000 1157.913,787.000 1160.273 C 787.000 1160.635,789.389 1164.659,792.308 1169.215 C 797.303 1177.011,800.689 1182.887,807.781 1196.065 C 810.284 1200.717,815.250 1211.277,823.611 1229.729 C 824.415 1231.505,825.690 1234.655,826.443 1236.729 C 827.196 1238.803,829.915 1245.225,832.486 1251.000 C 837.268 1261.744,842.675 1275.819,846.124 1286.500 C 847.189 1289.800,849.142 1295.425,850.464 1299.000 C 851.786 1302.575,854.467 1310.675,856.423 1317.000 C 858.378 1323.325,861.382 1333.000,863.099 1338.500 C 864.816 1344.000,866.883 1350.975,867.694 1354.000 C 872.011 1370.116,877.392 1391.789,879.488 1401.500 C 880.794 1407.550,882.808 1416.775,883.964 1422.000 C 885.119 1427.225,886.719 1435.071,887.518 1439.436 C 889.659 1451.125,892.043 1452.186,893.470 1442.085 C 893.826 1439.563,895.638 1430.975,897.496 1423.000 C 899.354 1415.025,902.538 1401.300,904.571 1392.500 C 906.604 1383.700,909.526 1372.000,911.065 1366.500 C 912.604 1361.000,914.172 1354.700,914.550 1352.500 C 915.967 1344.249,920.042 1330.489,925.507 1315.500 C 927.312 1310.550,930.464 1301.325,932.513 1295.000 C 934.562 1288.675,936.858 1282.085,937.615 1280.357 C 938.373 1278.628,940.077 1274.128,941.403 1270.357 C 947.350 1253.435,950.096 1246.255,951.867 1243.000 C 952.914 1241.075,954.105 1238.375,954.514 1237.000 C 954.924 1235.625,958.837 1227.075,963.210 1218.000 C 967.583 1208.925,972.137 1199.475,973.330 1197.000 C 975.405 1192.698,984.847 1176.270,988.000 1171.478 C 988.825 1170.225,991.525 1165.988,994.000 1162.064 C 1004.610 1145.242,1020.174 1122.042,1024.656 1116.367 C 1044.989 1090.626,1055.550 1078.399,1069.474 1064.480 C 1095.993 1037.972,1134.186 1007.688,1158.674 993.754 C 1161.328 992.243,1166.394 989.184,1169.930 986.955 C 1185.012 977.451,1219.637 959.792,1232.446 955.072 C 1235.717 953.867,1239.542 952.233,1240.946 951.441 C 1246.134 948.516,1272.741 938.211,1282.000 935.541 C 1284.475 934.827,1288.975 933.244,1292.000 932.023 C 1298.758 929.296,1319.231 922.260,1324.000 921.026 C 1330.493 919.347,1354.001 911.045,1356.260 909.634 C 1357.492 908.865,1361.650 907.987,1365.500 907.684 C 1371.657 907.199,1380.511 905.346,1385.000 903.604 C 1385.825 903.284,1391.675 902.149,1398.000 901.083 C 1404.325 900.016,1415.786 897.759,1423.470 896.066 C 1445.025 891.318,1445.104 889.193,1423.883 884.911 C 1397.815 879.650,1395.378 879.112,1387.905 876.969 C 1377.769 874.061,1370.257 872.063,1365.500 871.009 C 1363.300 870.521,1359.531 869.420,1357.124 868.561 C 1354.718 867.702,1351.759 867.000,1350.549 867.000 C 1349.340 867.000,1343.884 865.476,1338.425 863.613 C 1332.966 861.750,1327.150 859.938,1325.500 859.587 C 1321.066 858.643,1300.410 852.129,1293.500 849.495 C 1281.969 845.100,1267.291 840.000,1266.172 840.000 C 1265.552 840.000,1261.680 838.425,1257.568 836.500 C 1253.457 834.575,1249.859 833.000,1249.574 833.000 C 1249.122 833.000,1237.807 827.817,1225.500 821.973 C 1223.300 820.928,1216.775 817.980,1211.000 815.422 C 1205.225 812.864,1197.575 809.419,1194.000 807.767 C 1182.168 802.299,1153.945 786.363,1148.500 782.075 C 1147.400 781.209,1145.375 779.868,1144.000 779.096 C 1139.550 776.596,1110.771 754.877,1101.000 746.645 C 1077.988 727.256,1077.685 726.973,1058.973 707.360 C 1033.354 680.507,1032.282 679.206,1007.250 644.614 C 1003.813 639.864,1001.000 635.773,1001.000 635.524 C 1001.000 635.274,998.545 631.265,995.545 626.614 C 992.545 621.963,989.282 616.591,988.295 614.675 C 987.308 612.759,983.704 606.574,980.287 600.929 C 967.017 579.007,940.432 520.926,934.987 501.961 C 933.955 498.365,932.251 493.415,931.201 490.961 C 927.480 482.264,915.527 445.332,914.383 439.000 C 914.036 437.075,912.507 431.675,910.985 427.000 C 907.409 416.010,903.480 401.222,901.951 393.000 C 901.287 389.425,899.498 381.325,897.978 375.000 C 896.457 368.675,894.968 360.260,894.669 356.301 C 894.122 349.060,892.780 345.000,890.933 345.000 C 890.386 345.000,889.770 345.563,889.566 346.250 M892.559 410.750 C 893.542 412.813,894.665 416.075,895.053 418.000 C 897.552 430.386,899.283 437.429,901.486 444.170 C 902.864 448.388,904.854 455.363,905.907 459.670 C 907.783 467.340,919.147 503.128,923.159 514.000 C 926.202 522.245,930.764 533.193,937.953 549.500 C 948.111 572.543,965.956 607.917,970.988 614.983 C 972.095 616.537,973.000 618.068,973.000 618.385 C 973.000 618.702,974.482 621.332,976.293 624.231 C 978.104 627.129,980.132 630.625,980.800 632.000 C 981.468 633.375,983.845 636.975,986.083 640.000 C 988.320 643.025,993.012 649.775,996.509 655.000 C 1012.207 678.456,1043.760 715.446,1065.611 736.010 C 1072.409 742.407,1088.136 755.626,1098.319 763.500 C 1105.530 769.077,1120.573 780.544,1128.492 786.500 C 1152.285 804.397,1202.078 830.655,1240.500 845.566 C 1247.100 848.128,1254.430 851.093,1256.789 852.155 C 1264.486 855.620,1282.031 861.604,1307.500 869.451 C 1321.250 873.688,1333.625 877.544,1335.000 878.020 C 1336.375 878.497,1341.775 879.864,1347.000 881.058 C 1372.851 886.965,1376.519 888.028,1378.250 890.113 C 1381.980 894.606,1379.428 896.437,1367.316 897.958 C 1343.393 900.962,1326.214 904.485,1313.500 908.994 C 1310.750 909.969,1304.675 911.968,1300.000 913.434 C 1282.666 918.873,1260.220 927.302,1246.500 933.524 C 1243.750 934.771,1234.975 938.343,1227.000 941.461 C 1209.438 948.328,1195.399 954.826,1184.000 961.363 C 1182.075 962.467,1178.140 964.622,1175.255 966.152 C 1172.370 967.681,1168.770 969.781,1167.255 970.818 C 1163.093 973.665,1154.323 979.219,1146.500 983.963 C 1127.307 995.600,1099.024 1016.250,1083.000 1030.323 C 1080.525 1032.497,1069.784 1042.876,1059.131 1053.388 C 1041.358 1070.925,1026.701 1087.810,1016.500 1102.500 C 1014.300 1105.669,1011.150 1109.975,1009.500 1112.070 C 1007.850 1114.166,1005.375 1117.512,1004.000 1119.506 C 1002.625 1121.500,999.908 1125.240,997.961 1127.816 C 996.015 1130.392,993.090 1134.699,991.461 1137.387 C 989.833 1140.075,987.773 1143.450,986.885 1144.887 C 977.524 1160.028,974.624 1164.968,969.698 1174.163 C 966.556 1180.027,962.578 1187.677,960.859 1191.163 C 959.141 1194.648,956.979 1198.625,956.057 1200.000 C 955.134 1201.375,952.439 1207.000,950.068 1212.500 C 947.697 1218.000,944.689 1224.750,943.384 1227.500 C 940.024 1234.577,930.518 1257.762,926.368 1269.000 C 924.438 1274.225,922.474 1279.400,922.002 1280.500 C 921.530 1281.600,920.158 1285.650,918.952 1289.500 C 917.746 1293.350,916.171 1297.850,915.452 1299.500 C 914.734 1301.150,913.189 1306.100,912.020 1310.500 C 909.106 1321.460,908.960 1321.976,902.611 1343.706 C 899.525 1354.269,897.000 1363.687,897.000 1364.635 C 897.000 1365.582,896.566 1367.740,896.035 1369.429 C 895.504 1371.118,894.828 1373.706,894.533 1375.180 C 893.926 1378.214,891.520 1381.000,889.506 1381.000 C 887.846 1381.000,886.405 1376.696,884.986 1367.500 C 884.392 1363.650,883.503 1358.925,883.011 1357.000 C 882.519 1355.075,881.370 1350.175,880.458 1346.110 C 878.756 1338.526,878.438 1337.456,870.009 1311.000 C 867.292 1302.475,863.958 1291.900,862.599 1287.500 C 857.775 1271.887,853.795 1261.319,847.345 1247.000 C 843.753 1239.025,839.991 1230.666,838.984 1228.425 C 836.940 1223.874,830.004 1209.280,820.244 1189.000 C 816.671 1181.575,809.979 1169.503,805.374 1162.174 C 800.768 1154.845,797.000 1148.639,797.000 1148.384 C 797.000 1147.972,791.802 1139.870,780.714 1123.000 C 764.182 1097.847,743.315 1073.587,711.635 1042.690 C 699.636 1030.987,682.145 1015.955,673.827 1010.197 C 671.997 1008.930,666.727 1005.105,662.116 1001.697 C 657.505 998.289,653.009 995.050,652.125 994.500 C 651.242 993.950,648.056 991.925,645.047 990.000 C 638.549 985.843,638.405 985.756,628.588 980.000 C 624.366 977.525,618.625 974.281,615.829 972.790 C 613.034 971.300,610.016 969.451,609.123 968.682 C 608.230 967.912,604.350 965.588,600.500 963.517 C 596.650 961.446,593.050 959.400,592.500 958.972 C 590.764 957.618,569.682 947.000,568.731 947.000 C 568.232 947.000,564.955 945.672,561.448 944.049 C 557.942 942.426,549.769 939.001,543.287 936.437 C 536.804 933.873,529.025 930.528,526.000 929.002 C 521.440 926.703,478.844 911.872,468.500 908.982 C 445.842 902.651,442.233 901.724,433.500 899.988 C 430.200 899.332,423.675 897.941,419.000 896.897 C 414.325 895.852,409.353 894.998,407.950 894.999 C 404.825 895.000,403.000 893.312,403.000 890.421 C 403.000 887.785,405.740 886.601,415.500 885.019 C 432.443 882.271,455.203 876.476,474.500 869.995 C 477.800 868.887,481.175 867.982,482.000 867.984 C 482.825 867.986,484.684 867.370,486.131 866.615 C 487.577 865.860,491.852 864.244,495.631 863.023 C 499.409 861.803,505.875 859.516,510.000 857.942 C 514.125 856.368,522.445 853.207,528.488 850.918 C 534.531 848.628,543.531 844.816,548.488 842.446 C 553.445 840.076,559.975 837.182,563.000 836.015 C 577.411 830.454,606.483 815.248,628.030 802.000 C 632.055 799.525,636.508 796.804,637.924 795.954 C 639.341 795.103,643.806 792.178,647.846 789.454 C 651.886 786.729,656.611 783.624,658.346 782.553 C 660.081 781.482,665.325 777.530,670.000 773.772 C 684.356 762.231,685.200 761.568,695.500 753.746 C 706.137 745.668,744.242 707.822,752.016 697.612 C 754.482 694.373,758.331 689.612,760.570 687.031 C 762.808 684.450,765.944 680.575,767.538 678.419 C 769.132 676.264,772.522 672.025,775.071 669.000 C 777.620 665.975,780.873 661.700,782.300 659.500 C 783.726 657.300,787.167 652.230,789.947 648.233 C 792.726 644.237,795.000 640.777,795.000 640.546 C 795.000 640.315,798.695 634.360,803.211 627.313 C 811.784 613.935,814.335 609.332,824.168 589.500 C 827.440 582.900,830.795 576.375,831.623 575.000 C 835.453 568.638,842.010 553.542,850.082 532.500 C 852.825 525.350,856.806 515.000,858.929 509.500 C 865.510 492.448,866.867 488.648,868.033 484.000 C 868.654 481.525,870.427 475.675,871.972 471.000 C 878.677 450.719,880.312 444.934,882.008 435.500 C 886.619 409.846,887.325 407.000,889.080 407.000 C 890.051 407.000,891.534 408.598,892.559 410.750 M522.881 503.895 L 520.540 505.791 545.520 530.427 C 577.590 562.055,663.333 647.485,681.445 665.856 C 690.991 675.538,696.085 680.000,697.591 680.000 C 703.328 680.000,726.791 651.992,749.948 617.500 C 753.271 612.550,758.182 605.350,760.860 601.500 C 763.538 597.650,766.606 592.700,767.678 590.500 C 768.750 588.300,771.568 583.125,773.940 579.000 C 776.312 574.875,780.149 567.675,782.466 563.000 C 788.931 549.957,795.000 537.176,795.000 536.603 C 795.000 536.320,796.274 533.928,797.830 531.288 C 799.387 528.647,800.990 525.140,801.391 523.494 C 801.793 521.847,803.507 517.471,805.200 513.770 C 809.788 503.739,809.594 503.625,789.551 504.580 C 780.723 505.001,770.125 505.247,766.000 505.127 C 761.875 505.007,708.325 504.777,647.000 504.616 C 566.400 504.404,534.391 504.003,531.500 503.167 C 526.189 501.632,525.616 501.681,522.881 503.895 M1252.500 502.978 C 1251.380 503.471,1189.866 503.890,1112.750 503.930 C 978.467 503.998,975.000 504.047,975.000 505.886 C 975.000 510.085,983.326 533.331,987.961 542.072 C 988.419 542.936,989.992 546.086,991.456 549.072 C 996.401 559.155,1014.246 591.518,1019.262 599.500 C 1028.520 614.233,1041.868 634.174,1045.702 639.000 C 1048.105 642.025,1053.767 649.187,1058.285 654.916 C 1071.285 671.400,1079.809 680.000,1083.149 680.000 C 1085.540 680.000,1098.957 667.030,1173.068 593.076 C 1235.324 530.951,1260.077 505.630,1259.829 504.326 C 1259.440 502.276,1255.668 501.582,1252.500 502.978 M1314.250 502.654 C 1312.469 503.384,1312.705 507.129,1314.714 510.027 C 1315.656 511.387,1321.619 518.577,1327.964 526.005 C 1341.906 542.328,1359.211 565.154,1366.762 577.186 C 1368.818 580.461,1372.260 585.922,1374.410 589.320 C 1386.054 607.721,1408.236 648.821,1412.826 660.500 C 1413.906 663.250,1416.828 669.775,1419.318 675.000 C 1421.808 680.225,1424.980 688.325,1426.367 693.000 C 1427.754 697.675,1430.760 706.675,1433.047 713.000 C 1435.335 719.325,1438.090 728.100,1439.171 732.500 C 1440.252 736.900,1441.974 743.200,1442.998 746.500 C 1444.022 749.800,1445.373 754.975,1446.000 758.000 C 1446.627 761.025,1447.755 765.750,1448.506 768.500 C 1450.808 776.923,1453.031 787.819,1454.932 800.000 C 1457.384 815.719,1460.080 837.180,1460.592 845.061 C 1460.898 849.769,1461.504 854.197,1461.939 854.901 C 1463.022 856.653,1483.210 860.440,1505.500 863.071 C 1509.900 863.591,1516.650 864.436,1520.500 864.948 C 1524.350 865.461,1532.000 866.363,1537.500 866.953 C 1543.000 867.543,1548.112 868.250,1548.860 868.524 C 1551.132 869.356,1582.023 871.992,1589.550 871.996 C 1593.705 871.998,1597.093 871.507,1597.800 870.800 C 1599.363 869.237,1599.274 862.032,1597.459 843.000 C 1596.646 834.475,1595.536 822.550,1594.993 816.500 C 1594.450 810.450,1593.564 802.686,1593.025 799.246 C 1592.026 792.864,1590.759 784.299,1589.033 772.250 C 1586.418 753.993,1584.315 744.139,1577.966 720.412 C 1576.335 714.314,1575.000 708.619,1575.000 707.756 C 1575.000 706.894,1573.476 701.533,1571.614 695.844 C 1567.407 682.990,1563.086 668.943,1561.491 662.936 C 1560.825 660.426,1559.152 655.701,1557.773 652.436 C 1552.678 640.365,1549.019 631.330,1546.664 625.000 C 1542.531 613.894,1530.094 586.889,1525.247 578.500 C 1522.705 574.100,1519.086 567.350,1517.204 563.500 C 1512.297 553.459,1501.084 533.023,1498.548 529.500 C 1497.361 527.850,1494.231 522.783,1491.594 518.239 C 1482.495 502.569,1479.306 501.357,1450.157 502.494 C 1425.612 503.452,1370.647 503.572,1338.500 502.738 C 1325.850 502.410,1314.938 502.373,1314.250 502.654 M298.364 506.491 C 296.639 507.853,293.080 512.462,290.454 516.733 C 287.829 521.005,285.127 525.175,284.451 526.000 C 282.557 528.309,268.687 553.679,259.576 571.500 C 249.238 591.722,236.729 619.327,229.669 637.500 C 217.951 667.664,209.391 694.371,203.707 718.500 C 190.716 773.641,186.399 801.392,184.002 845.172 C 183.530 853.792,183.450 862.985,183.824 865.601 C 184.423 869.792,184.856 870.451,187.467 871.150 C 191.251 872.162,209.950 871.476,214.236 870.168 C 216.031 869.621,223.125 868.889,230.000 868.543 C 236.875 868.197,245.200 867.471,248.500 866.931 C 251.800 866.391,258.325 865.499,263.000 864.948 C 277.567 863.231,286.143 862.240,296.500 861.074 C 308.747 859.696,316.830 857.140,319.148 853.911 C 320.534 851.982,321.083 847.804,321.895 833.000 C 322.454 822.825,323.355 812.250,323.897 809.500 C 325.666 800.532,332.562 770.498,337.215 751.500 C 338.832 744.900,340.759 736.800,341.498 733.500 C 342.238 730.200,345.162 721.200,347.998 713.500 C 350.833 705.800,354.065 696.800,355.181 693.500 C 356.297 690.200,357.858 686.246,358.650 684.712 C 359.442 683.179,361.151 678.904,362.448 675.212 C 367.850 659.831,380.256 634.568,394.065 610.827 C 397.799 604.406,402.297 596.531,404.060 593.327 C 405.823 590.122,409.153 584.800,411.461 581.500 C 413.769 578.200,417.838 572.351,420.505 568.502 C 423.171 564.653,425.836 561.006,426.426 560.397 C 427.017 559.788,429.598 556.412,432.161 552.895 C 441.689 539.824,454.268 524.236,462.262 515.594 C 466.793 510.695,470.500 506.195,470.500 505.594 C 470.500 504.813,446.352 504.431,386.000 504.258 L 301.500 504.015 298.364 506.491 M504.206 662.450 C 504.443 776.519,504.750 804.151,505.794 805.194 C 506.852 806.252,508.582 805.964,515.294 803.614 C 522.638 801.042,543.063 791.681,558.000 784.040 C 561.025 782.493,564.484 780.930,565.686 780.566 C 567.770 779.937,580.264 772.749,597.411 762.314 C 601.762 759.666,607.737 756.150,610.690 754.500 C 616.520 751.242,624.036 745.850,656.406 721.699 C 665.268 715.088,681.000 699.797,681.000 697.794 C 681.000 696.668,675.051 690.151,666.308 681.701 C 658.228 673.891,618.616 634.538,578.282 594.250 C 537.947 553.962,504.714 521.000,504.429 521.000 C 504.144 521.000,504.044 584.653,504.206 662.450 M1219.879 576.928 C 1189.288 607.493,1162.063 634.574,1159.379 637.109 C 1156.696 639.645,1151.954 644.370,1148.842 647.609 C 1139.315 657.529,1109.784 686.261,1104.758 690.500 C 1098.484 695.793,1098.375 698.663,1104.250 703.920 C 1119.129 717.233,1129.576 725.961,1137.000 731.281 C 1141.675 734.631,1147.525 739.009,1150.000 741.009 C 1152.475 743.009,1158.100 746.814,1162.500 749.463 C 1166.900 752.112,1172.300 755.513,1174.500 757.020 C 1176.700 758.526,1180.300 760.772,1182.500 762.010 C 1184.700 763.248,1192.125 767.434,1199.000 771.314 C 1229.162 788.332,1270.751 806.461,1275.473 804.649 C 1276.813 804.135,1276.999 798.209,1276.995 756.281 C 1276.992 730.002,1277.077 666.757,1277.184 615.738 C 1277.302 558.936,1277.013 522.663,1276.438 522.167 C 1275.904 521.705,1251.583 545.252,1219.879 576.928 M479.354 528.268 C 478.463 529.793,476.780 531.947,465.980 545.386 C 462.393 549.849,455.427 558.900,450.499 565.500 C 442.547 576.151,438.087 582.689,421.512 608.000 C 419.171 611.575,416.275 616.440,415.076 618.811 C 413.878 621.182,411.427 625.457,409.629 628.311 C 406.033 634.022,390.014 666.286,386.448 675.000 C 377.413 697.079,374.619 704.353,371.190 714.723 C 363.126 739.113,360.096 750.117,355.558 771.500 C 352.990 783.600,350.043 797.100,349.009 801.500 C 345.763 815.307,342.718 844.988,344.151 848.846 C 344.938 850.963,345.485 851.143,349.762 850.696 C 358.057 849.828,398.012 841.108,408.000 837.987 C 409.375 837.557,413.200 836.464,416.500 835.559 C 425.146 833.186,433.842 830.622,447.500 826.416 C 454.100 824.384,461.750 822.067,464.500 821.267 C 475.033 818.203,480.144 815.752,481.068 813.321 C 482.290 810.106,482.352 528.952,481.131 527.731 C 480.566 527.166,479.876 527.375,479.354 528.268 M1299.186 666.306 C 1299.115 741.763,1299.321 805.710,1299.644 808.412 C 1300.610 816.481,1301.288 816.857,1330.000 825.235 C 1346.546 830.063,1357.590 833.177,1365.000 835.104 C 1369.125 836.177,1374.975 837.898,1378.000 838.929 C 1383.813 840.910,1393.232 843.107,1404.000 844.994 C 1411.070 846.234,1414.954 847.047,1425.206 849.437 C 1433.484 851.367,1436.904 851.414,1437.596 849.610 C 1437.890 848.845,1437.626 843.333,1437.009 837.360 C 1436.393 831.387,1435.494 822.433,1435.012 817.462 C 1434.530 812.491,1433.692 806.416,1433.150 803.962 C 1432.608 801.508,1431.629 796.800,1430.975 793.500 C 1428.404 780.530,1426.730 773.249,1424.999 767.500 C 1424.006 764.200,1422.432 757.900,1421.502 753.500 C 1419.180 742.517,1413.283 722.697,1410.391 716.157 C 1409.076 713.184,1408.000 710.126,1408.000 709.362 C 1408.000 708.598,1407.588 707.191,1407.084 706.236 C 1405.628 703.476,1403.359 698.036,1400.616 690.729 C 1399.217 687.004,1397.435 682.504,1396.654 680.729 C 1395.873 678.953,1393.549 673.450,1391.489 668.500 C 1387.170 658.122,1380.593 644.770,1374.496 634.000 C 1372.160 629.875,1368.237 622.620,1365.778 617.877 C 1359.590 605.946,1335.514 570.432,1323.500 555.516 C 1319.650 550.736,1313.866 543.476,1310.646 539.384 C 1307.426 535.292,1303.559 531.306,1302.053 530.528 L 1299.315 529.112 1299.186 666.306 M1577.000 909.076 C 1570.675 909.462,1561.675 910.259,1557.000 910.848 C 1552.325 911.438,1542.425 912.391,1535.000 912.968 C 1527.575 913.545,1518.575 914.440,1515.000 914.957 C 1511.425 915.474,1506.250 916.170,1503.500 916.504 C 1500.750 916.838,1495.125 917.806,1491.000 918.655 C 1486.875 919.505,1481.025 920.577,1478.000 921.037 C 1460.766 923.661,1460.532 923.920,1459.523 941.500 C 1459.175 947.550,1458.235 956.775,1457.432 962.000 C 1456.630 967.225,1455.330 976.000,1454.544 981.500 C 1452.498 995.827,1451.639 1000.158,1446.612 1021.500 C 1435.306 1069.504,1416.494 1118.451,1393.869 1158.733 C 1392.800 1160.637,1389.851 1166.088,1387.317 1170.847 C 1373.591 1196.623,1340.647 1242.115,1316.638 1268.449 C 1308.469 1277.410,1308.276 1279.607,1315.757 1278.496 C 1318.366 1278.108,1356.275 1277.500,1400.000 1277.145 C 1484.731 1276.458,1482.337 1276.610,1486.000 1271.652 C 1486.825 1270.535,1488.625 1267.704,1490.000 1265.360 C 1491.375 1263.016,1495.036 1256.914,1498.136 1251.799 C 1507.523 1236.311,1513.922 1225.123,1515.358 1221.686 C 1516.107 1219.893,1519.467 1213.393,1522.824 1207.241 C 1526.181 1201.090,1531.466 1190.531,1534.567 1183.778 C 1542.090 1167.396,1559.152 1123.572,1564.069 1108.000 C 1566.240 1101.125,1569.584 1090.550,1571.500 1084.500 C 1573.416 1078.450,1576.544 1066.975,1578.449 1059.000 C 1586.839 1023.893,1587.367 1021.248,1590.027 1001.000 C 1590.497 997.425,1591.342 991.800,1591.905 988.500 C 1592.468 985.200,1593.404 977.775,1593.985 972.000 C 1599.030 921.870,1599.685 911.531,1597.953 909.443 C 1596.681 907.911,1596.242 907.903,1577.000 909.076 M184.306 931.151 C 184.711 953.058,186.949 981.081,189.004 990.000 C 189.990 994.279,190.362 996.535,192.936 1013.887 C 193.539 1017.950,194.949 1025.150,196.070 1029.887 C 197.191 1034.624,198.520 1040.525,199.024 1043.000 C 201.279 1054.084,205.998 1072.040,209.930 1084.500 C 211.491 1089.450,214.464 1098.900,216.534 1105.500 C 229.178 1145.797,246.315 1185.322,268.839 1226.136 C 286.221 1257.632,295.933 1273.325,299.197 1275.186 C 301.037 1276.236,317.483 1276.542,381.000 1276.708 C 424.725 1276.823,462.589 1277.196,465.142 1277.537 C 468.114 1277.935,470.032 1277.757,470.473 1277.043 C 470.861 1276.417,468.600 1273.189,465.311 1269.673 C 455.352 1259.027,431.632 1228.804,420.832 1213.000 C 413.403 1202.127,397.372 1176.677,393.747 1170.000 C 392.404 1167.525,389.360 1162.125,386.983 1158.000 C 381.499 1148.483,368.207 1120.967,364.038 1110.500 C 362.286 1106.100,360.259 1101.375,359.534 1100.000 C 358.810 1098.625,357.064 1093.900,355.655 1089.500 C 354.247 1085.100,351.014 1075.650,348.471 1068.500 C 342.629 1052.070,337.727 1035.330,335.148 1023.000 C 334.515 1019.975,333.070 1013.450,331.936 1008.500 C 330.123 1000.579,326.446 981.390,323.890 966.500 C 322.439 958.047,321.073 942.892,321.036 934.823 C 321.003 927.740,320.796 926.985,318.365 925.073 C 316.916 923.933,314.810 923.000,313.686 923.000 C 312.562 923.000,310.260 922.573,308.571 922.051 C 305.437 921.083,283.731 917.415,272.000 915.871 C 250.119 912.992,222.037 910.569,197.196 909.418 L 183.892 908.801 184.306 931.151 M345.108 929.913 C 344.013 930.606,343.836 932.782,344.278 940.147 C 345.175 955.089,347.048 971.014,348.672 977.500 C 349.499 980.800,350.562 985.750,351.035 988.500 C 353.702 1004.006,355.143 1010.817,358.334 1023.000 C 360.278 1030.425,362.582 1038.494,363.454 1040.931 C 364.326 1043.368,365.738 1048.093,366.592 1051.431 C 367.446 1054.769,369.715 1061.775,371.633 1067.000 C 373.551 1072.225,376.278 1079.650,377.693 1083.500 C 379.107 1087.350,381.383 1092.975,382.749 1096.000 C 384.115 1099.025,387.486 1106.675,390.240 1113.000 C 396.996 1128.516,400.489 1135.344,411.934 1155.410 C 429.460 1186.135,444.095 1207.873,461.055 1228.370 C 471.276 1240.723,479.000 1250.919,479.000 1252.060 C 479.000 1252.577,479.613 1253.000,480.362 1253.000 C 481.506 1253.000,481.662 1230.288,481.339 1110.750 C 481.128 1032.513,480.965 967.783,480.978 966.907 C 481.008 964.742,474.532 961.768,462.500 958.423 C 457.000 956.893,452.050 955.334,451.500 954.958 C 450.950 954.581,448.475 953.969,446.000 953.598 C 443.525 953.227,439.025 952.095,436.000 951.082 C 432.975 950.070,427.800 948.497,424.500 947.588 C 421.200 946.679,417.150 945.544,415.500 945.067 C 413.850 944.589,407.550 943.009,401.500 941.554 C 395.450 940.100,389.150 938.541,387.500 938.090 C 385.850 937.639,382.700 936.774,380.500 936.166 C 375.615 934.818,354.820 930.325,350.000 929.577 C 348.075 929.278,345.874 929.429,345.108 929.913 M1420.000 931.526 C 1414.225 932.830,1407.700 934.400,1405.500 935.015 C 1399.927 936.573,1395.477 937.623,1388.500 939.027 C 1380.013 940.735,1352.594 948.099,1347.500 950.039 C 1346.400 950.457,1342.800 951.567,1339.500 952.504 C 1320.725 957.836,1302.974 964.670,1301.345 967.192 C 1300.035 969.220,1300.261 1250.999,1301.572 1250.999 C 1303.301 1251.000,1319.099 1232.229,1328.500 1219.003 C 1329.600 1217.456,1334.864 1210.144,1340.197 1202.754 C 1350.137 1188.982,1359.187 1174.884,1368.284 1159.000 C 1377.200 1143.430,1397.892 1099.763,1402.875 1086.000 C 1403.970 1082.975,1406.511 1076.225,1408.521 1071.000 C 1410.531 1065.775,1413.219 1057.675,1414.494 1053.000 C 1415.770 1048.325,1417.756 1041.629,1418.907 1038.120 C 1420.058 1034.611,1421.000 1031.053,1421.000 1030.214 C 1421.000 1029.375,1422.596 1022.121,1424.547 1014.094 C 1429.158 995.120,1429.717 992.657,1431.034 985.500 C 1431.641 982.200,1432.608 977.701,1433.183 975.501 C 1434.286 971.286,1436.055 949.673,1436.335 937.000 L 1436.500 929.500 1433.500 929.328 C 1431.850 929.233,1425.775 930.223,1420.000 931.526 M1269.000 976.476 C 1267.625 977.276,1264.925 978.446,1263.000 979.076 C 1259.461 980.234,1248.451 984.879,1237.557 989.810 C 1229.075 993.649,1197.056 1009.851,1194.033 1011.834 C 1190.676 1014.035,1188.412 1015.429,1183.000 1018.628 C 1162.333 1030.846,1141.474 1046.262,1113.000 1070.362 C 1101.948 1079.716,1099.000 1082.621,1099.000 1084.156 C 1099.000 1084.670,1100.048 1086.083,1101.329 1087.295 C 1126.502 1111.118,1148.646 1132.725,1199.411 1183.000 C 1233.010 1216.275,1263.425 1246.541,1267.000 1250.258 C 1278.141 1261.842,1276.974 1276.944,1277.179 1118.500 C 1277.277 1042.325,1277.389 978.987,1277.429 977.750 C 1277.486 975.951,1276.899 975.452,1274.500 975.260 C 1272.850 975.129,1270.375 975.676,1269.000 976.476 M504.395 977.413 C 503.915 978.663,504.629 1234.460,505.126 1239.500 C 505.234 1240.600,504.963 1245.438,504.524 1250.250 C 503.902 1257.061,504.005 1259.000,504.990 1259.000 C 506.541 1259.000,512.217 1253.424,606.585 1159.195 C 648.063 1117.778,682.000 1083.559,682.000 1083.153 C 682.000 1082.153,674.615 1075.246,668.500 1070.528 C 665.750 1068.406,663.050 1066.180,662.500 1065.580 C 658.644 1061.378,637.516 1045.075,626.000 1037.415 C 621.325 1034.306,616.375 1030.756,615.000 1029.528 C 613.625 1028.300,609.800 1025.712,606.500 1023.778 C 603.200 1021.843,596.000 1017.625,590.500 1014.402 C 585.000 1011.180,575.325 1005.927,569.000 1002.728 C 562.675 999.529,556.375 996.264,555.000 995.473 C 552.586 994.085,549.750 992.827,538.000 987.935 C 534.975 986.675,531.337 984.847,529.916 983.873 C 526.930 981.825,509.942 976.000,506.954 976.000 C 505.845 976.000,504.693 976.636,504.395 977.413 M608.811 1188.074 L 521.122 1276.034 523.553 1277.627 C 525.164 1278.682,526.578 1278.930,527.742 1278.360 C 528.709 1277.887,590.790 1277.275,665.700 1277.000 C 767.123 1276.628,802.197 1276.204,803.061 1275.340 C 804.455 1273.945,802.442 1267.271,797.339 1256.365 C 795.502 1252.441,794.000 1248.839,794.000 1248.361 C 794.000 1247.457,791.147 1241.453,779.100 1217.000 C 772.123 1202.841,769.244 1197.411,765.192 1190.768 C 764.095 1188.971,762.314 1185.925,761.235 1184.000 C 750.376 1164.633,724.683 1128.084,711.051 1112.614 C 705.831 1106.691,698.373 1099.951,697.155 1100.057 C 696.795 1100.089,657.040 1139.696,608.811 1188.074 M1072.583 1110.486 C 1067.702 1116.253,1063.014 1121.991,1062.166 1123.236 C 1061.317 1124.481,1058.090 1128.650,1054.995 1132.500 C 1044.691 1145.316,1024.996 1173.988,1020.807 1182.272 C 1019.631 1184.597,1018.116 1187.175,1017.440 1188.000 C 1014.328 1191.796,998.242 1223.857,987.085 1248.500 C 975.023 1275.142,975.498 1273.898,976.869 1275.270 C 978.549 1276.949,1257.739 1277.662,1259.408 1275.991 C 1260.198 1275.200,1259.394 1273.976,1256.500 1271.566 C 1253.568 1269.124,1151.083 1166.874,1140.000 1155.333 C 1139.175 1154.474,1132.642 1148.085,1125.483 1141.135 C 1118.324 1134.186,1106.670 1122.518,1099.585 1115.206 C 1087.554 1102.789,1084.383 1100.000,1082.295 1100.000 C 1081.834 1100.000,1077.464 1104.719,1072.583 1110.486 M316.000 1300.482 C 316.000 1303.069,328.461 1319.080,354.408 1349.832 C 369.970 1368.276,401.406 1400.773,416.000 1413.502 C 441.359 1435.620,461.984 1452.477,468.426 1456.348 C 470.117 1457.364,473.156 1459.787,475.179 1461.732 C 482.459 1468.728,482.042 1473.796,481.756 1381.779 L 481.500 1299.500 398.750 1299.244 C 325.911 1299.019,316.000 1299.167,316.000 1300.482 M530.000 1300.373 C 530.000 1302.593,548.974 1318.780,563.094 1328.607 C 566.171 1330.748,573.596 1335.992,579.594 1340.260 C 592.150 1349.195,603.187 1356.365,612.783 1361.822 C 616.477 1363.923,620.625 1366.285,622.000 1367.071 C 623.375 1367.857,625.175 1369.004,626.000 1369.620 C 630.069 1372.659,654.681 1384.766,673.500 1392.986 C 674.600 1393.466,679.100 1395.433,683.500 1397.357 C 699.217 1404.227,707.912 1407.392,738.584 1417.406 C 743.030 1418.857,751.130 1420.912,756.584 1421.973 C 762.038 1423.033,768.525 1424.624,771.000 1425.509 C 773.475 1426.394,777.750 1427.587,780.500 1428.160 C 783.250 1428.733,787.300 1429.625,789.500 1430.143 C 797.866 1432.112,832.994 1435.936,846.500 1436.348 C 852.024 1436.516,852.066 1436.428,849.996 1429.000 C 849.460 1427.075,847.208 1417.850,844.992 1408.500 C 842.776 1399.150,840.091 1388.575,839.025 1385.000 C 837.959 1381.425,836.191 1373.955,835.095 1368.399 C 834.000 1362.844,832.437 1356.544,831.624 1354.399 C 830.810 1352.255,829.388 1347.350,828.464 1343.500 C 827.539 1339.650,825.975 1334.250,824.988 1331.500 C 824.001 1328.750,821.948 1322.489,820.427 1317.587 C 816.980 1306.481,814.538 1301.359,812.057 1300.031 C 810.762 1299.337,764.304 1299.000,670.066 1299.000 C 552.006 1299.000,530.000 1299.216,530.000 1300.373 M968.358 1299.765 C 967.151 1300.542,960.999 1312.129,961.001 1313.624 C 961.001 1314.106,959.448 1319.450,957.548 1325.500 C 955.649 1331.550,952.922 1341.450,951.487 1347.500 C 950.053 1353.550,948.520 1359.400,948.080 1360.500 C 947.641 1361.600,946.567 1365.650,945.694 1369.500 C 944.822 1373.350,941.126 1388.507,937.481 1403.182 C 933.836 1417.858,930.999 1431.133,931.177 1432.682 L 931.500 1435.500 944.000 1435.141 C 958.194 1434.733,971.392 1433.573,978.000 1432.152 C 982.211 1431.247,986.350 1430.441,999.250 1428.011 C 1016.531 1424.757,1043.215 1417.660,1059.500 1411.987 C 1063.900 1410.455,1070.425 1408.304,1074.000 1407.209 C 1086.859 1403.268,1099.075 1397.940,1130.669 1382.493 C 1143.412 1376.262,1156.237 1369.645,1159.169 1367.787 C 1162.101 1365.929,1166.300 1363.574,1168.500 1362.554 C 1170.700 1361.533,1173.625 1359.833,1175.000 1358.775 C 1176.375 1357.717,1183.350 1353.021,1190.500 1348.338 C 1206.270 1338.011,1216.489 1330.613,1226.884 1322.000 C 1231.198 1318.425,1238.809 1312.350,1243.795 1308.500 C 1248.782 1304.650,1252.893 1300.938,1252.931 1300.250 C 1252.986 1299.255,1224.028 1299.003,1111.250 1299.015 C 1033.287 1299.024,968.986 1299.361,968.358 1299.765 M1300.132 1381.083 L 1300.421 1463.166 1303.159 1462.618 C 1304.665 1462.317,1308.283 1460.378,1311.199 1458.310 C 1318.287 1453.281,1333.885 1441.192,1337.000 1438.312 C 1338.375 1437.041,1342.425 1433.695,1346.000 1430.877 C 1358.809 1420.780,1365.857 1414.228,1390.500 1389.507 C 1424.067 1355.834,1446.169 1331.409,1448.968 1324.895 C 1449.534 1323.578,1451.816 1320.025,1454.039 1317.000 C 1461.645 1306.650,1465.000 1301.526,1465.000 1300.263 C 1465.000 1299.256,1448.283 1299.000,1382.422 1299.000 L 1299.844 1299.000 1300.132 1381.083 M503.978 1310.250 C 503.965 1310.938,503.975 1348.817,504.000 1394.426 L 504.044 1477.351 506.272 1481.282 C 508.467 1485.154,517.788 1491.537,538.000 1503.009 C 541.575 1505.038,547.425 1508.384,551.000 1510.444 C 558.077 1514.522,590.350 1530.882,596.000 1533.256 C 597.925 1534.065,604.900 1537.215,611.500 1540.255 C 618.100 1543.295,625.652 1546.506,628.281 1547.390 C 630.911 1548.274,638.111 1550.993,644.281 1553.432 C 666.196 1562.094,709.625 1575.530,733.500 1581.035 C 738.450 1582.176,746.100 1583.979,750.500 1585.042 C 754.900 1586.104,762.100 1587.424,766.500 1587.975 C 776.052 1589.172,789.849 1591.613,795.196 1593.053 C 797.315 1593.623,804.551 1594.562,811.275 1595.139 C 817.999 1595.716,827.550 1596.610,832.500 1597.126 C 837.450 1597.642,847.500 1598.310,854.834 1598.611 C 872.660 1599.342,872.425 1599.539,871.682 1584.500 C 871.082 1572.377,868.708 1549.399,866.928 1538.500 C 865.608 1530.416,864.315 1519.517,863.072 1506.000 C 861.933 1493.610,857.429 1466.671,856.074 1464.139 C 854.640 1461.460,850.280 1460.292,839.000 1459.568 C 833.775 1459.232,825.900 1458.257,821.500 1457.401 C 817.100 1456.544,809.900 1455.436,805.500 1454.937 C 798.109 1454.099,794.914 1453.526,783.236 1450.943 C 780.890 1450.424,778.005 1450.000,776.824 1450.000 C 775.642 1450.000,772.386 1449.343,769.588 1448.541 C 764.202 1446.996,748.202 1442.789,739.000 1440.498 C 729.046 1438.019,705.743 1430.515,700.500 1428.100 C 699.400 1427.594,696.025 1426.445,693.000 1425.548 C 689.975 1424.652,685.700 1423.094,683.500 1422.087 C 681.300 1421.080,674.550 1418.120,668.500 1415.510 C 641.094 1403.683,625.818 1396.086,610.500 1386.665 C 605.550 1383.621,595.963 1377.838,589.196 1373.815 C 582.428 1369.792,573.193 1363.800,568.673 1360.500 C 564.153 1357.200,559.115 1353.640,557.477 1352.589 C 548.837 1347.044,527.673 1329.706,511.899 1315.250 C 504.732 1308.682,504.014 1308.228,503.978 1310.250 M1267.500 1316.738 C 1263.650 1320.901,1258.654 1325.701,1256.399 1327.404 C 1254.143 1329.107,1247.618 1334.098,1241.899 1338.496 C 1216.060 1358.365,1183.684 1380.254,1171.020 1386.417 C 1168.534 1387.626,1164.596 1389.828,1162.270 1391.308 C 1159.943 1392.789,1157.538 1394.000,1156.924 1394.000 C 1156.311 1394.000,1154.614 1394.846,1153.154 1395.880 C 1146.691 1400.457,1116.512 1414.237,1094.500 1422.662 C 1087.900 1425.188,1080.700 1428.039,1078.500 1428.997 C 1076.300 1429.955,1073.600 1430.987,1072.500 1431.289 C 1065.370 1433.250,1055.190 1436.333,1053.500 1437.044 C 1052.400 1437.506,1047.675 1438.867,1043.000 1440.067 C 1038.325 1441.268,1028.650 1443.818,1021.500 1445.735 C 1014.350 1447.651,1006.025 1449.622,1003.000 1450.114 C 999.975 1450.606,995.025 1451.445,992.000 1451.979 C 988.975 1452.514,982.450 1453.443,977.500 1454.046 C 972.550 1454.649,967.150 1455.516,965.500 1455.973 C 963.850 1456.430,956.650 1457.354,949.500 1458.026 C 926.860 1460.152,926.675 1460.192,925.213 1463.242 C 924.497 1464.736,923.680 1468.330,923.397 1471.229 C 923.115 1474.128,922.493 1478.300,922.015 1480.500 C 921.538 1482.700,920.625 1488.550,919.988 1493.500 C 919.350 1498.450,918.201 1506.550,917.433 1511.500 C 916.666 1516.450,915.578 1525.000,915.015 1530.500 C 914.453 1536.000,913.527 1544.100,912.958 1548.500 C 911.659 1558.545,910.199 1572.562,909.103 1585.500 C 907.925 1599.410,907.824 1599.319,923.474 1598.604 C 930.089 1598.302,940.225 1597.625,946.000 1597.100 C 973.767 1594.573,977.975 1594.132,984.500 1593.063 C 988.350 1592.432,993.419 1591.484,995.764 1590.958 C 998.110 1590.431,1001.141 1590.000,1002.500 1590.000 C 1003.859 1590.000,1006.890 1589.563,1009.236 1589.029 C 1011.581 1588.494,1016.650 1587.396,1020.500 1586.588 C 1060.934 1578.100,1086.176 1571.583,1106.000 1564.514 C 1111.225 1562.651,1119.100 1560.031,1123.500 1558.693 C 1144.783 1552.218,1201.371 1526.688,1232.000 1509.743 C 1243.420 1503.424,1251.979 1498.389,1257.423 1494.785 C 1260.681 1492.629,1264.956 1490.036,1266.923 1489.024 C 1268.890 1488.011,1271.850 1485.762,1273.500 1484.026 L 1276.500 1480.868 1276.674 1399.684 C 1276.770 1355.033,1277.083 1317.012,1277.371 1315.192 C 1277.972 1311.382,1277.288 1308.963,1275.643 1309.084 C 1275.014 1309.130,1271.350 1312.574,1267.500 1316.738 " fill="currentColor" fill-rule="evenodd"/></svg>